PathFileType	4	(X/Y/Z)	/Users/niels/Desktop/University/Third Semester/Perception and Action/Exam/Gymnastics Motion Tracking/Code for Gym Tracking/Analyzed Data/Webcam_Backflip/id8_3_pure_Sports2D/id8_3_pure_Sports2D_px_person00.trc
DataRate	CameraRate	NumFrames	NumMarkers	Units	OrigDataRate	OrigDataStartFrame	OrigNumFrames
29.81132075471698	29.81132075471698	12	22	m	29.81132075471698	139	159
Frame#	Time	Hip			RHip			RKnee			RAnkle			RBigToe			RSmallToe			RHeel			LHip			LKnee			LAnkle			LBigToe			LSmallToe			LHeel			Neck			Head			Nose			RShoulder			RElbow			RWrist			LShoulder			LElbow			LWrist		
		X1	Y1	Z1	X2	Y2	Z2	X3	Y3	Z3	X4	Y4	Z4	X5	Y5	Z5	X6	Y6	Z6	X7	Y7	Z7	X8	Y8	Z8	X9	Y9	Z9	X10	Y10	Z10	X11	Y11	Z11	X12	Y12	Z12	X13	Y13	Z13	X14	Y14	Z14	X15	Y15	Z15	X16	Y16	Z16	X17	Y17	Z17	X18	Y18	Z18	X19	Y19	Z19	X20	Y20	Z20	X21	Y21	Z21	X22	Y22	Z22
139	4.662658227848101	0.982571627773239	-0.572132681641806	0.0	0.9784781556531446	-0.5719763345757657	0.0	0.9824744245692987	-0.6676786459183094	0.0	0.9717911003345744	-0.7645726385991024	0.0	1.0045008810603029	-0.7883355336343786	0.0	0.9923237851706095	-0.7899493341038387	0.0	0.9649575347600376	-0.7810999006085672	0.0	0.987991523527715	-0.570312499666089	0.0	0.9895208759129467	-0.6667077018779537	0.0	0.9736828733407201	-0.760060626509068	0.0	1.007502428271147	-0.7841486604100202	0.0	1.0039085651186606	-0.7803818507892774	0.0	0.9653774551788719	-0.7737467377079219	0.0	0.985995604933277	-0.4367055779233231	0.0	0.9898995355173424	-0.3711667246974328	0.0	1.006682145680949	-0.4032088891804536	0.0	0.9732664585570565	-0.458871299825029	0.0	0.9659921027630448	-0.5237402555594722	0.0	0.9865226798268495	-0.5817261946394225	0.0	0.9930040304631875	-0.45785871892246593	0.0	0.9967157643985932	-0.5154083909369438	0.0	1.0267151357721287	-0.5637532241553584	0.0
140	4.69620253164557	0.9832188523659036	-0.5779979515019805	0.0	0.9782257104290251	-0.5781125618987975	0.0	0.9816616329213179	-0.6719074995287473	0.0	0.9710596438443919	-0.7685877072516597	0.0	1.0037587352507928	-0.7920747624927447	0.0	0.9924928215693476	-0.7932651378886064	0.0	0.964278494235149	-0.7852102759650333	0.0	0.989606956795709	-0.5763832779450467	0.0	0.9919648583033766	-0.6709031225358636	0.0	0.9739031169008414	-0.7636405795698729	0.0	1.0080091273184137	-0.7876967847192454	0.0	1.004262224803007	-0.783615932272963	0.0	0.9663795958854013	-0.7776207414105332	0.0	0.98594837248376	-0.44111588329662865	0.0	0.990277733665702	-0.37583575893375704	0.0	1.0068114176386247	-0.40808408058976414	0.0	0.972843856121803	-0.4633324775773719	0.0	0.9647854470401136	-0.5278923034893582	0.0	0.9847482015019676	-0.586032915044574	0.0	0.9931817024789633	-0.4623459231951716	0.0	0.997835477705652	-0.5192198861009929	0.0	1.0316341311933555	-0.5659235744735539	0.0
141	4.729746835443038	0.9839886019383814	-0.5845444864915634	0.0	0.9777333494215724	-0.5850153427066611	0.0	0.9800154742145518	-0.6769408739314421	0.0	0.9699594865939825	-0.7732915625132482	0.0	1.002653223994909	-0.7961566208272426	0.0	0.9921722865874719	-0.7970251288900149	0.0	0.9632561861978226	-0.7897813364725924	0.0	0.9915123437261677	-0.5832366045553057	0.0	0.9946646104788882	-0.6758610887755805	0.0	0.9739993055541901	-0.7675047318900298	0.0	1.00846684684047	-0.7915499702793594	0.0	1.0048223704953345	-0.7870964386853538	0.0	0.9673317853946947	-0.7816915155257409	0.0	0.9857939926067918	-0.446352422476038	0.0	0.9904774872329594	-0.38148771552544664	0.0	1.0068974257193997	-0.41388747289609024	0.0	0.9719850367842428	-0.46877430621683525	0.0	0.9635922701145325	-0.5331466089006577	0.0	0.9826540311013922	-0.5915989438213785	0.0	0.9935486782446815	-0.4675582716069001	0.0	0.9989157517118658	-0.5240513973920582	0.0	1.035382220540068	-0.5695679658670467	0.0
142	4.763291139240506	0.9847627351703717	-0.591046710178083	0.0	0.9770285694675718	-0.5919241223937287	0.0	0.9778135201085919	-0.6822746412266132	0.0	0.9687520595472306	-0.7782363739783504	0.0	1.0011452863449373	-0.8002901657374024	0.0	0.991214799161938	-0.8009984597663589	0.0	0.9621849645607792	-0.7943613367930726	0.0	0.9934275850440494	-0.5900774792698902	0.0	0.9974536586396365	-0.6809843529484003	0.0	0.973882047694638	-0.7712293096163154	0.0	1.008556807010918	-0.7953640318926439	0.0	1.0052241263366266	-0.7905512242571501	0.0	0.9680081275711399	-0.7854569150121192	0.0	0.9855695370805431	-0.45184392595912853	0.0	0.9904841315746057	-0.38752215414321023	0.0	1.0069012493500842	-0.4200504401313056	0.0	0.9707256716696374	-0.4746137530085983	0.0	0.9623031868095985	-0.5389830698038164	0.0	0.9801663467174222	-0.5980421180734994	0.0	0.9940743488650038	-0.4729119612304773	0.0	0.9999138119399636	-0.5294480924061571	0.0	1.0375548001358956	-0.5744405566146783	0.0
143	4.796835443037974	0.9854641483023201	-0.5967434657660166	0.0	0.9761868572079948	-0.5979846742111624	0.0	0.9753969685371229	-0.6873403120233236	0.0	0.9676352435219785	-0.7829333324702036	0.0	0.99922598831862	-0.8041614185568905	0.0	0.9895265276599853	-0.8048531095878828	0.0	0.9612820975875234	-0.7984869770451727	0.0	0.9951847174500409	-0.5960648514393114	0.0	1.0002948204914681	-0.6856649035363018	0.0	0.9735429424499108	-0.7743775071461299	0.0	1.008002996278524	-0.7988036842766977	0.0	1.0050846567005556	-0.7937127843371132	0.0	0.9682540757321211	-0.7884294219327395	0.0	0.9852947365833283	-0.45702708175847223	0.0	0.9903284015104354	-0.3932706892032286	0.0	1.0067811647099785	-0.425939210145912	0.0	0.9691531649175078	-0.4801627431248656	0.0	0.9608254285639697	-0.5447926076090363	0.0	0.9773609116911098	-0.6047655337157833	0.0	0.9947363367505112	-0.47785146899164255	0.0	1.000777522306567	-0.534909340668885	0.0	1.0379262034642878	-0.5801410683221034	0.0
144	4.830379746835443	0.9860720537189772	-0.6009849715189592	0.0	0.9753038110329563	-0.6024353028608712	0.0	0.9730569583919442	-0.6915901664649395	0.0	0.9667259753200389	-0.7868932995317255	0.0	0.9970485456434235	-0.8073767634086223	0.0	0.9872214650143927	-0.8081281202524263	0.0	0.9606499912080166	-0.8017139468618767	0.0	0.996735972983283	-0.6004659399647229	0.0	1.0032374969636728	-0.6893664033070729	0.0	0.9731109398543842	-0.7764894131678908	0.0	1.0067507919686303	-0.8014589813605357	0.0	1.0042577003401225	-0.7962068975441798	0.0	0.9680837131687521	-0.7901562628498612	0.0	0.9849762235758348	-0.4613798369673252	0.0	0.9901043391097027	-0.39806940327986984	0.0	1.0065191853973448	-0.43089046717675455	0.0	0.9673768374409035	-0.48477091962670493	0.0	0.9591253513150388	-0.5499620505663211	0.0	0.974391258517515	-0.6110060640236976	0.0	0.9955526978246788	-0.48191955058915276	0.0	1.0014215527580639	-0.5399454195184139	0.0	1.0364721098957503	-0.586129999985287	0.0
145	4.863924050632911	0.986593642239634	-0.6033839719343663	0.0	0.9744740701040023	-0.6048207769332835	0.0	0.9709646716847944	-0.6945934481038397	0.0	0.9660525313088023	-0.789678969681403	0.0	0.994901739798788	-0.8094781595596584	0.0	0.9846142030839555	-0.8103158839758451	0.0	0.9602548483004313	-0.8036728094038037	0.0	0.9980774326157864	-0.6028090432014952	0.0	1.0063418014992322	-0.6916859707008411	0.0	0.9728313392480256	-0.7771493726317615	0.0	1.005060623263328	-0.8028705441861111	0.0	1.0029546383737653	-0.7975707577134197	0.0	0.9677051546392922	-0.7903290552157319	0.0	0.9846161095036782	-0.4644843348302925	0.0	0.9899429164437128	-0.40138724776360657	0.0	1.0061367165696915	-0.4343335457336097	0.0	0.9655248962717528	-0.48796946220402904	0.0	0.9572461572619969	-0.5539481452977619	0.0	0.9714224104147656	-0.6159375678333976	0.0	0.996516331392194	-0.484787579062501	0.0	1.0017315732826837	-0.5441104737155423	0.0	1.033351320933988	-0.5917561940024881	0.0
146	4.897468354430379	0.9870304037665794	-0.6038270969405786	0.0	0.9737455263694199	-0.6050013700043906	0.0	0.9691861100306557	-0.6960775662303365	0.0	0.9655583413640051	-0.7909613149086284	0.0	0.9930408079339204	-0.8100790011093727	0.0	0.9820385086112846	-0.8110061508480504	0.0	0.9599529229355507	-0.8041284633566913	0.0	0.9991996326134088	-0.6029045254860067	0.0	1.0096361158459526	-0.6923744078747824	0.0	0.972988161695732	-0.7760984804501808	0.0	1.0034175762555504	-0.802697373129276	0.0	1.001659567413662	-0.797440755856847	0.0	0.9674793842537821	-0.7888800751182427	0.0	0.9842253801196726	-0.46607846059523317	0.0	0.9899476178477197	-0.4029408470452673	0.0	1.0057009003574815	-0.43594687588157394	0.0	0.9637296168288476	-0.4895143328117266	0.0	0.9552963288041864	-0.5563150457968734	0.0	0.9686229276570202	-0.6188419848273365	0.0	0.9975440728888074	-0.48623754238893324	0.0	1.001576910674167	-0.5469783306819708	0.0	1.028856511983565	-0.5963084865540913	0.0
147	4.931012658227848	0.987355864732219	-0.6024250018442469	0.0	0.9730898437288686	-0.6030922196362059	0.0	0.9677435631278308	-0.6959463010222471	0.0	0.9651616002345437	-0.7905783298915001	0.0	0.9916088517469895	-0.8090354110254817	0.0	0.9797471849488244	-0.810029078605489	0.0	0.9596002780063545	-0.8030353133494355	0.0	1.000075589685378	-0.6008555704316986	0.0	1.013064409095867	-0.6913575480109173	0.0	0.9737872480287315	-0.7733764489682158	0.0	1.0023173350369372	-0.8009073785949097	0.0	1.0009214416196779	-0.795756848798314	0.0	0.9677592419629581	-0.7860237663690031	0.0	0.9838400608243673	-0.4660722864583479	0.0	0.9901494534629199	-0.40268732173389726	0.0	1.0052968823239201	-0.4356985714350901	0.0	0.9621006058982817	-0.4893403996165244	0.0	0.9534203603891825	-0.556801499796911	0.0	0.9661665411989964	-0.6193460393125592	0.0	0.9985235128954064	-0.48615907439884887	0.0	1.0008568715687842	-0.5481547472608747	0.0	1.0234216971706511	-0.5991450781678742	0.0
148	4.964556962025316	0.9875063640232984	-0.5994806241600084	0.0	0.9724402555583512	-0.5994772378954482	0.0	0.9666452423293205	-0.6943021114945149	0.0	0.9648160496994223	-0.788598888032168	0.0	0.9906956243163542	-0.8065237081037884	0.0	0.9779575661232773	-0.8075481202923599	0.0	0.9591443857348864	-0.800574103316029	0.0	1.0006603520796722	-0.5970884991836118	0.0	1.0164539836875373	-0.6887807631634038	0.0	0.9752612689016087	-0.7694164619185814	0.0	1.0021227953706575	-0.7978366632157834	0.0	1.0011595136497777	-0.7928175002076225	0.0	0.9686895592335565	-0.7822293974452775	0.0	0.9835214820373982	-0.4645418050002939	0.0	0.9905245233962169	-0.40077256062828115	0.0	1.0049847204331996	-0.43377814222720434	0.0	0.9607212960354533	-0.48752899398690286	0.0	0.9517623449507656	-0.5553984522028962	0.0	0.964195005579062	-0.6175504431594131	0.0	0.999395191168368	-0.48459644194384804	0.0	0.9996292937683363	-0.5474402596914824	0.0	1.017691383384424	-0.5998801347188321	0.0
149	4.998101265822784	0.987423194023255	-0.5954324714106451	0.0	0.971760527957118	-0.5947475235462673	0.0	0.9658822832485513	-0.6914368383256239	0.0	0.964517428783858	-0.785352787533324	0.0	0.9903417219037347	-0.8029896092976656	0.0	0.9768351289161076	-0.8040278248691072	0.0	0.9586230207358397	-0.7971380890956834	0.0	1.000937176255785	-0.5922392176036598	0.0	1.0195602185839623	-0.6850062459112005	0.0	0.9773351678053768	-0.7649160996237278	0.0	1.0030444210848517	-0.7940374459995349	0.0	1.0025747360872752	-0.7891264026439941	0.0	0.9702373529881352	-0.7780695262528503	0.0	0.9833379167449005	-0.46171314452395396	0.0	0.9910255632540381	-0.39753395434225625	0.0	1.004785855515025	-0.4305385224036763	0.0	0.9596427027211814	-0.48433736817893175	0.0	0.9504100179928648	-0.5523766530427459	0.0	0.9627636665755709	-0.6139327836995552	0.0	1.0001818020166	-0.4817788351359271	0.0	0.9982110650442574	-0.545028813040117	0.0	1.0124855713156737	-0.5985424627181352	0.0
150	5.031645569620253	0.9871287261880087	-0.5907671204722593	0.0	0.9710839497366053	-0.5895148048064339	0.0	0.9654274803216719	-0.6877852676974836	0.0	0.9642852862643745	-0.7813772842028525	0.0	0.9904448091063263	-0.7990202965373745	0.0	0.9763817935172251	-0.8000698581293577	0.0	0.958117604498603	-0.7932438872754094	0.0	1.0009728941025227	-0.5869311306637169	0.0	1.0221440531079895	-0.6805204699442786	0.0	0.9800185791023224	-0.7605604611129068	0.0	1.0051826629320157	-0.7900348404471391	0.0	1.0052040649543057	-0.7851734577449359	0.0	0.9724319495076624	-0.7740429091511823	0.0	0.9833372179183528	-0.45795018219979766	0.0	0.9915887941500923	-0.3934807177311664	0.0	1.0047046636947363	-0.4264651531416803	0.0	0.9588529981353668	-0.48020623483427965	0.0	0.9493511402620973	-0.5482429463748189	0.0	0.9618136997441978	-0.6091431730059419	0.0	1.0009457348561026	-0.47808633518447163	0.0	0.997043148146618	-0.5414792650055329	0.0	1.008528772874437	-0.595573679098914	0.0
